<svg version="1.2" xmlns="http://www.w3.org/2000/svg" viewBox="0 0 940 400" width="940" height="400"><style>.a{fill:#cdcdcd}.b{fill:#636363}.c{fill:#3f4646}.d{fill:#8e8e8e}.e{fill:#fff}.f{fill:#1d1f22}.g{fill:#347cc4}.h{fill:#1de3c9}.i{fill:#f9fa31}.j{fill:#f9fafb}.k{fill:#646464}.l{fill:#fcc083}.m{fill:#e8aa63}.n{fill:#253e71}.o{fill:#353535}.p{fill:#33558b}.q{fill:#dfe0e0}.r{fill:#595961}.s{fill:#c0c0c0}.t{fill:#ebebeb}.u{fill:#72aed6}.v{fill:#3c3c3c}.w{fill:#f0f0f0}.x{fill:#cbcbcb}.y{fill:#4f4840}.z{fill:#ffb842}.A{fill:#7e8181}.B{fill:#bfbfbf}.C{fill:#e1e1e1}</style><path class="a" d="m940 400h-940v-400h940z"/><path class="b" d="m791.3 400v-47.3h-642.4v47.3z"/><path class="c" d="m167 400v-53.5h-36.2v53.5z"/><path class="c" d="m825.2 400v-53.5h-40.9v53.5z"/><path class="c" d="m856.9 364.2h-773.8v-23h773.8z"/><path class="d" d="m362.7 333.5h-63.2l13.1-52.2h37z"/><path class="e" d="m427.3 288.9h-192.4c-6.6 0-11.9-5.4-11.9-11.9v-138c0-6.5 5.3-11.9 11.9-11.9h192.4c6.5 0 11.9 5.4 11.9 11.9v138c0 6.5-5.4 11.9-11.9 11.9z"/><path class="f" d="m419.7 264.3h-177.2v-122.6h177.2z"/><path class="e" d="m373.2 341.6l-84.4-0.7c-5.3 0-9.5-4.3-9.5-9.6v-0.2c0.1-5.3 4.4-9.5 9.6-9.5l84.5 0.7c5.3 0 9.5 4.3 9.4 9.6v0.2c0 5.3-4.3 9.5-9.6 9.5z"/><path class="g" d="m419.7 264.3h-177.2v-122.6h177.2z"/><path class="h" d="m267 150.4h-11.2v-3.6h11.2z"/><path class="h" d="m267 187.1h-11.2v-3.6h11.2z"/><path class="i" d="m274.3 156.3h-11.2v-3.7h11.2z"/><path class="i" d="m287.3 156.3h-11.2v-3.7h11.2z"/><path class="j" d="m300.2 156.3h-11.2v-3.7h11.2z"/><path class="j" d="m313.1 156.3h-11.2v-3.7h11.2z"/><path class="j" d="m335.8 156.3h-19.7v-3.7h19.7z"/><path class="i" d="m280 162.4h-11.3v-3.7h11.3z"/><path class="i" d="m292.9 162.4h-11.2v-3.7h11.2z"/><path class="j" d="m305.8 162.4h-11.2v-3.7h11.2z"/><path class="j" d="m318.8 162.4h-11.3v-3.7h11.3z"/><path class="i" d="m280 174.9h-11.3v-3.7h11.3z"/><path class="i" d="m292.9 174.9h-11.2v-3.7h11.2z"/><path class="j" d="m305.8 174.9h-11.2v-3.7h11.2z"/><path class="j" d="m318.8 174.9h-11.3v-3.7h11.3z"/><path class="j" d="m341.4 174.9h-19.7v-3.7h19.7z"/><path class="i" d="m274.3 181.2h-11.2v-3.7h11.2z"/><path class="i" d="m287.3 181.2h-11.2v-3.7h11.2z"/><path class="j" d="m300.2 181.2h-11.2v-3.7h11.2z"/><path class="j" d="m313.1 181.2h-11.2v-3.7h11.2z"/><path class="i" d="m285.6 168.5h-11.3v-3.7h11.3z"/><path class="i" d="m298.5 168.5h-11.2v-3.7h11.2z"/><path class="j" d="m311.4 168.5h-11.2v-3.7h11.2z"/><path class="j" d="m324.4 168.5h-11.3v-3.7h11.3z"/><path class="j" d="m347.1 168.5h-19.8v-3.7h19.8z"/><path class="h" d="m267 195.6h-11.2v-3.7h11.2z"/><path class="h" d="m267 232.3h-11.2v-3.7h11.2z"/><path class="i" d="m274.3 201.4h-11.2v-3.6h11.2z"/><path class="i" d="m287.3 201.4h-11.2v-3.6h11.2z"/><path class="j" d="m300.2 201.4h-11.2v-3.6h11.2z"/><path class="j" d="m313.1 201.4h-11.2v-3.6h11.2z"/><path class="j" d="m335.8 201.4h-19.7v-3.6h19.7z"/><path class="i" d="m280 207.5h-11.3v-3.6h11.3z"/><path class="i" d="m292.9 207.5h-11.2v-3.6h11.2z"/><path class="j" d="m305.8 207.5h-11.2v-3.6h11.2z"/><path class="j" d="m318.8 207.5h-11.3v-3.6h11.3z"/><path class="i" d="m280 220h-11.3v-3.6h11.3z"/><path class="i" d="m292.9 220h-11.2v-3.6h11.2z"/><path class="j" d="m305.8 220h-11.2v-3.6h11.2z"/><path class="i" d="m274.3 226.3h-11.2v-3.7h11.2z"/><path class="i" d="m287.3 226.3h-11.2v-3.7h11.2z"/><path class="j" d="m300.2 226.3h-11.2v-3.7h11.2z"/><path class="j" d="m313.1 226.3h-11.2v-3.7h11.2z"/><path class="i" d="m285.6 213.6h-11.3v-3.7h11.3z"/><path class="i" d="m298.5 213.6h-11.2v-3.7h11.2z"/><path class="j" d="m311.4 213.6h-11.2v-3.7h11.2z"/><path class="j" d="m324.4 213.6h-11.3v-3.7h11.3z"/><path class="j" d="m347.1 213.6h-19.8v-3.7h19.8z"/><path class="h" d="m267 240.7h-11.2v-3.7h11.2z"/><path class="i" d="m274.3 246.5h-11.2v-3.6h11.2z"/><path class="i" d="m287.3 246.5h-11.2v-3.6h11.2z"/><path class="j" d="m300.2 246.5h-11.2v-3.6h11.2z"/><path class="j" d="m313.1 246.5h-11.2v-3.6h11.2z"/><path class="j" d="m335.8 246.5h-19.7v-3.6h19.7z"/><path class="i" d="m280 252.6h-11.3v-3.6h11.3z"/><path class="i" d="m292.9 252.6h-11.2v-3.6h11.2z"/><path class="j" d="m305.8 252.6h-11.2v-3.6h11.2z"/><path class="i" d="m285.6 258.7h-11.3v-3.6h11.3z"/><path class="i" d="m298.5 258.7h-11.2v-3.6h11.2z"/><path class="j" d="m311.4 258.7h-11.2v-3.6h11.2z"/><path class="j" d="m324.4 258.7h-11.3v-3.6h11.3z"/><path class="j" d="m347.1 258.7h-19.8v-3.6h19.8z"/><path class="j" d="m369.3 213.6h-19.8v-3.7h19.8z"/><path class="j" d="m391.5 213.6h-19.8v-3.7h19.8z"/><path class="k" d="m348.4 197.2c-3.3-1.5-12.9-3.3-17.3-3.4-4.3 0.1-13.9 1.9-17.2 3.4-15.2 6.6-15.4 19.4-15.4 39.4h32.6 32.7c0-20-0.2-32.8-15.4-39.4z"/><path class="l" d="m344.1 273.6h-11.4-2.4-11.5c0 0 3.9 22-14.5 40.1l26 31.4h2.4l26-31.4c-18.4-18.1-14.6-40.1-14.6-40.1z"/><path class="m" d="m318.8 273.6h11.5 2.4 11.4c0 0-1.8 10.7 3.3 23.3-10.6-4.1-19-12.8-28.3-20.8-0.1-1.6-0.3-2.5-0.3-2.5z"/><path class="l" d="m368.9 235.1c-1.1-2.5-3-1.2-4.5 0.4 0.4-19.5-11.2-29.4-11.2-29.4h-43.5c0 0-11.6 9.9-11.3 29.3-1.4-1.6-3.3-2.7-4.3-0.3-2 4.5 2.6 10.8 1.7 17.1-0.6 4.2 3.2 3.8 5.6 2.6q0.1 0.4 0.3 0.9 0.1-0.2 0.3-0.4c2.1-5.8 7.2-10.3 15.2-10.3q0.1 0 0.2 0c5.3-1.6 11-2.1 16.2-1.5 5.5 0.6 11 1.3 16.2 3.3 4.8 1.8 9.1 4.4 11.4 8.8q0.1-0.4 0.2-0.8c2.4 1.2 6.3 1.7 5.7-2.6-0.9-6.3 3.8-12.6 1.8-17.1z"/><path class="n" d="m393.2 356.3c0-20.7-2.6-46.6-4.3-49.7l-11.3-7.8c-12.7-5.6-31.3-10.2-31.3-10.2q0 0 0.1 0.1l-0.5-0.1c0 0-29.3 0-29.3 0l-0.4 0.1q0-0.1 0-0.1c0 0-18.9 4.5-31.7 10.2l-10.8 7.8c-1.7 3.1-4 22.8-4 49.7z"/><path class="o" d="m354.6 198.4c-13.9-9.1-32.3-9.1-46.2 0-7 4.6-13 11.3-13.1 20.9-0.3 18.9 8.2 62.1 36.2 62.1 28 0 36.4-43.2 36.2-62.1-0.2-9.6-6.1-16.3-13.1-20.9z"/><path class="p" d="m377.6 298.8c0 0 48.8 28.7 54.9 49.1 6.2 20.3-68.7 8.1-68.7 8.1z"/><path class="p" d="m284.5 298.8c0 0-48.7 28.7-54.9 49.1-6.1 20.3 68.8 8.1 68.8 8.1z"/><path class="q" d="m272.4 400h117.4l11.4-66c1-5.8-5-11.5-13.8-13-14.3-2.4-36-3.2-56.3-3.2-20.3 0-42 0.8-56.3 3.2-8.8 1.5-14.8 7.2-13.8 13z"/><path class="d" d="m640.6 333.3h-63.1l13.1-52.1h36.9z"/><path class="e" d="m707.1 288.7h-196.1c-5.5 0-10-4.4-10-9.9v-141.7c0-5.5 4.5-10 10-10h196.1c5.4 0 9.9 4.5 9.9 10v141.7c0 5.5-4.5 9.9-9.9 9.9z"/><path class="e" d="m651.2 340.9l-84.3 0.2c-5.3 0.1-9.6-4.2-9.6-9.5v-0.1c0-5.3 4.2-9.6 9.5-9.6l84.4-0.2c5.2 0 9.5 4.2 9.5 9.5v0.2c0.1 5.2-4.2 9.5-9.5 9.5z"/><path class="d" d="m680.1 279.3c0 1.6-1.3 2.9-2.8 2.9-1.6 0-2.8-1.3-2.8-2.9 0-1.5 1.2-2.8 2.8-2.8 1.5 0 2.8 1.3 2.8 2.8z"/><path class="d" d="m687.9 279.3c0 1.6-1.2 2.9-2.8 2.9-1.5 0-2.8-1.3-2.8-2.9 0-1.5 1.3-2.8 2.8-2.8 1.6 0 2.8 1.3 2.8 2.8z"/><path class="d" d="m695.8 279.3c0 1.6-1.3 2.9-2.8 2.9-1.6 0-2.8-1.3-2.8-2.9 0-1.5 1.2-2.8 2.8-2.8 1.5 0 2.8 1.3 2.8 2.8z"/><path class="r" d="m697.5 265.1h-177v-122.4h177z"/><path class="s" d="m624.5 228.5h-84.6v-70.8h84.6z"/><path class="g" d="m620.3 223.5h-75.9v-52.6h75.9z"/><path class="g" d="m620.3 167.9h-75.9v-6.3h75.9z"/><path class="h" d="m553.8 175.5h-3.9v-1.3h3.9z"/><path class="h" d="m553.8 188.2h-3.9v-1.3h3.9z"/><path class="i" d="m556.3 177.5h-3.9v-1.3h3.9z"/><path class="i" d="m560.8 177.5h-3.9v-1.3h3.9z"/><path class="j" d="m565.2 177.5h-3.8v-1.3h3.8z"/><path class="j" d="m569.7 177.5h-3.9v-1.3h3.9z"/><path class="j" d="m577.6 177.5h-6.9v-1.3h6.9z"/><path class="i" d="m558.2 179.6h-3.8v-1.3h3.8z"/><path class="i" d="m562.7 179.6h-3.9v-1.3h3.9z"/><path class="j" d="m567.2 179.6h-3.9v-1.3h3.9z"/><path class="i" d="m558.2 183.9h-3.8v-1.2h3.8z"/><path class="i" d="m562.7 183.9h-3.9v-1.2h3.9z"/><path class="j" d="m567.2 183.9h-3.9v-1.2h3.9z"/><path class="j" d="m571.7 183.9h-3.9v-1.2h3.9z"/><path class="j" d="m579.5 183.9h-6.8v-1.2h6.8z"/><path class="i" d="m556.3 186.1h-3.9v-1.3h3.9z"/><path class="i" d="m560.8 186.1h-3.9v-1.3h3.9z"/><path class="j" d="m565.2 186.1h-3.8v-1.3h3.8z"/><path class="j" d="m569.7 186.1h-3.9v-1.3h3.9z"/><path class="i" d="m560.2 181.7h-3.9v-1.3h3.9z"/><path class="i" d="m564.7 181.7h-3.9v-1.3h3.9z"/><path class="j" d="m569.1 181.7h-3.9v-1.3h3.9z"/><path class="j" d="m573.6 181.7h-3.9v-1.3h3.9z"/><path class="j" d="m581.4 181.7h-6.8v-1.3h6.8z"/><path class="h" d="m553.8 191.1h-3.9v-1.3h3.9z"/><path class="h" d="m553.8 203.8h-3.9v-1.3h3.9z"/><path class="i" d="m556.3 193.1h-3.9v-1.3h3.9z"/><path class="i" d="m560.8 193.1h-3.9v-1.3h3.9z"/><path class="j" d="m565.2 193.1h-3.8v-1.3h3.8z"/><path class="j" d="m569.7 193.1h-3.9v-1.3h3.9z"/><path class="j" d="m577.6 193.1h-6.9v-1.3h6.9z"/><path class="i" d="m558.2 195.2h-3.8v-1.3h3.8z"/><path class="i" d="m562.7 195.2h-3.9v-1.3h3.9z"/><path class="j" d="m567.2 195.2h-3.9v-1.3h3.9z"/><path class="i" d="m558.2 199.5h-3.8v-1.2h3.8z"/><path class="i" d="m562.7 199.5h-3.9v-1.2h3.9z"/><path class="j" d="m567.2 199.5h-3.9v-1.2h3.9z"/><path class="j" d="m571.7 199.5h-3.9v-1.2h3.9z"/><path class="j" d="m579.5 199.5h-6.8v-1.2h6.8z"/><path class="i" d="m556.3 201.7h-3.9v-1.3h3.9z"/><path class="i" d="m560.8 201.7h-3.9v-1.3h3.9z"/><path class="j" d="m565.2 201.7h-3.8v-1.3h3.8z"/><path class="j" d="m569.7 201.7h-3.9v-1.3h3.9z"/><path class="i" d="m560.2 197.3h-3.9v-1.3h3.9z"/><path class="i" d="m564.7 197.3h-3.9v-1.3h3.9z"/><path class="j" d="m569.1 197.3h-3.9v-1.3h3.9z"/><path class="j" d="m573.6 197.3h-3.9v-1.3h3.9z"/><path class="j" d="m581.4 197.3h-6.8v-1.3h6.8z"/><path class="j" d="m589.1 197.3h-6.8v-1.3h6.8z"/><path class="j" d="m596.8 197.3h-6.8v-1.3h6.8z"/><path class="h" d="m553.8 206.7h-3.9v-1.3h3.9z"/><path class="h" d="m553.8 217.6h-3.9v-1.3h3.9z"/><path class="i" d="m556.3 208.7h-3.9v-1.3h3.9z"/><path class="i" d="m560.8 208.7h-3.9v-1.3h3.9z"/><path class="j" d="m565.2 208.7h-3.8v-1.3h3.8z"/><path class="j" d="m569.7 208.7h-3.9v-1.3h3.9z"/><path class="j" d="m577.6 208.7h-6.9v-1.3h6.9z"/><path class="i" d="m558.2 210.8h-3.8v-1.3h3.8z"/><path class="i" d="m562.7 210.8h-3.9v-1.3h3.9z"/><path class="j" d="m567.2 210.8h-3.9v-1.3h3.9z"/><path class="j" d="m571.7 210.8h-3.9v-1.3h3.9z"/><path class="i" d="m558.2 215.1h-3.8v-1.2h3.8z"/><path class="i" d="m562.7 215.1h-3.9v-1.2h3.9z"/><path class="j" d="m567.2 215.1h-3.9v-1.2h3.9z"/><path class="j" d="m571.7 215.1h-3.9v-1.2h3.9z"/><path class="i" d="m560.2 212.9h-3.9v-1.2h3.9z"/><path class="i" d="m564.7 212.9h-3.9v-1.2h3.9z"/><path class="j" d="m569.1 212.9h-3.9v-1.2h3.9z"/><path class="j" d="m573.6 212.9h-3.9v-1.2h3.9z"/><path class="j" d="m581.4 212.9h-6.8v-1.2h6.8z"/><path class="t" d="m618.3 166.5h-3.6v-3.6h3.6z"/><path class="t" d="m612.7 166.5h-3.6v-3.6h3.6z"/><path class="t" d="m607.1 166.5h-3.6v-3.6h3.6z"/><path class="t" d="m550.1 166.5h-3.7v-3.6h3.7z"/><g style="mix-blend-mode:multiply"><path class="u" d="m624.5 228.5v-56h-52v56z"/></g><path class="s" d="m668.7 254.9h-84.6v-70.8h84.6z"/><path class="g" d="m664.5 249.8h-76v-52.5h76z"/><path class="g" d="m664.5 194.2h-76v-6.3h76z"/><path class="h" d="m599.1 201h-4.8v-1.6h4.8z"/><path class="h" d="m599.1 216.7h-4.8v-1.5h4.8z"/><path class="i" d="m602.2 203.5h-4.8v-1.6h4.8z"/><path class="i" d="m607.7 203.5h-4.8v-1.6h4.8z"/><path class="j" d="m613.3 203.5h-4.8v-1.6h4.8z"/><path class="j" d="m618.8 203.5h-4.8v-1.6h4.8z"/><path class="j" d="m628.5 203.5h-8.4v-1.6h8.4z"/><path class="i" d="m604.6 206.1h-4.8v-1.5h4.8z"/><path class="i" d="m610.1 206.1h-4.8v-1.5h4.8z"/><path class="j" d="m615.7 206.1h-4.8v-1.5h4.8z"/><path class="j" d="m621.2 206.1h-4.8v-1.5h4.8z"/><path class="i" d="m604.6 211.5h-4.8v-1.6h4.8z"/><path class="i" d="m610.1 211.5h-4.8v-1.6h4.8z"/><path class="j" d="m615.7 211.5h-4.8v-1.6h4.8z"/><path class="j" d="m621.2 211.5h-4.8v-1.6h4.8z"/><path class="j" d="m631 211.5h-8.5v-1.6h8.5z"/><path class="i" d="m602.2 214.2h-4.8v-1.6h4.8z"/><path class="i" d="m607.7 214.2h-4.8v-1.6h4.8z"/><path class="j" d="m613.3 214.2h-4.8v-1.6h4.8z"/><path class="j" d="m618.8 214.2h-4.8v-1.6h4.8z"/><path class="i" d="m607 208.7h-4.8v-1.5h4.8z"/><path class="i" d="m612.6 208.7h-4.9v-1.5h4.9z"/><path class="j" d="m618.1 208.7h-4.8v-1.5h4.8z"/><path class="j" d="m623.6 208.7h-4.8v-1.5h4.8z"/><path class="j" d="m633.4 208.7h-8.5v-1.5h8.5z"/><path class="h" d="m599.1 220.3h-4.8v-1.5h4.8z"/><path class="h" d="m599.1 236.1h-4.8v-1.6h4.8z"/><path class="i" d="m602.2 222.9h-4.8v-1.6h4.8z"/><path class="i" d="m607.7 222.9h-4.8v-1.6h4.8z"/><path class="j" d="m613.3 222.9h-4.8v-1.6h4.8z"/><path class="j" d="m618.8 222.9h-4.8v-1.6h4.8z"/><path class="j" d="m628.5 222.9h-8.4v-1.6h8.4z"/><path class="i" d="m604.6 225.5h-4.8v-1.6h4.8z"/><path class="i" d="m610.1 225.5h-4.8v-1.6h4.8z"/><path class="j" d="m615.7 225.5h-4.8v-1.6h4.8z"/><path class="j" d="m621.2 225.5h-4.8v-1.6h4.8z"/><path class="i" d="m604.6 230.8h-4.8v-1.5h4.8z"/><path class="i" d="m610.1 230.8h-4.8v-1.5h4.8z"/><path class="j" d="m615.7 230.8h-4.8v-1.5h4.8z"/><path class="i" d="m602.2 233.5h-4.8v-1.5h4.8z"/><path class="i" d="m607.7 233.5h-4.8v-1.5h4.8z"/><path class="j" d="m613.3 233.5h-4.8v-1.5h4.8z"/><path class="j" d="m618.8 233.5h-4.8v-1.5h4.8z"/><path class="i" d="m607 228.1h-4.8v-1.6h4.8z"/><path class="i" d="m612.6 228.1h-4.9v-1.6h4.9z"/><path class="j" d="m618.1 228.1h-4.8v-1.6h4.8z"/><path class="j" d="m623.6 228.1h-4.8v-1.6h4.8z"/><path class="j" d="m633.4 228.1h-8.5v-1.6h8.5z"/><path class="h" d="m599.1 239.7h-4.8v-1.6h4.8z"/><path class="i" d="m602.2 242.2h-4.8v-1.6h4.8z"/><path class="i" d="m607.7 242.2h-4.8v-1.6h4.8z"/><path class="j" d="m613.3 242.2h-4.8v-1.6h4.8z"/><path class="j" d="m618.8 242.2h-4.8v-1.6h4.8z"/><path class="j" d="m628.5 242.2h-8.4v-1.6h8.4z"/><path class="i" d="m604.6 244.8h-4.8v-1.6h4.8z"/><path class="i" d="m610.1 244.8h-4.8v-1.6h4.8z"/><path class="j" d="m615.7 244.8h-4.8v-1.6h4.8z"/><path class="i" d="m607 247.4h-4.8v-1.5h4.8z"/><path class="i" d="m612.6 247.4h-4.9v-1.5h4.9z"/><path class="j" d="m618.1 247.4h-4.8v-1.5h4.8z"/><path class="j" d="m623.6 247.4h-4.8v-1.5h4.8z"/><path class="j" d="m633.4 247.4h-8.5v-1.5h8.5z"/><path class="j" d="m642.9 228.1h-8.5v-1.6h8.5z"/><path class="j" d="m652.4 228.1h-8.5v-1.6h8.5z"/><path class="t" d="m662.5 192.9h-3.7v-3.7h3.7z"/><path class="t" d="m656.9 192.9h-3.6v-3.7h3.6z"/><path class="t" d="m651.3 192.9h-3.6v-3.7h3.6z"/><path class="t" d="m594.3 192.9h-3.7v-3.7h3.7z"/><path class="e" d="m676.2 207.9l-19.9-0.6 4.4 19.4 6.2-7.6 12.3 11.2 4.1-4.9-13.3-10.1z"/><path class="e" d="m169.5 341.2h26.2v-4.2h-26.2z"/><path fill-rule="evenodd" class="e" d="m158.1 313.1c5.4 0 9.7 4.3 9.7 9.7 0 5.4-4.3 9.7-9.7 9.7-5.3 0-9.7-7.3-9.7-12.7 0-5.3 4.4-6.7 9.7-6.7zm2.1 16.4c3.7 0 6.7-3 6.7-6.7 0-3.7-3-6.7-6.7-6.7-3.7 0-6.6 0-6.6 3.7 0 3.7 2.9 9.7 6.6 9.7z"/><path class="e" d="m205 309.9c0.2 1.2 0.3 2.4 0.3 3.6 0 13-10.2 23.5-22.7 23.5-12.5 0-22.7-10.5-22.7-23.5q0-1.9 0.3-3.6z"/><path class="e" d="m173.8 302.5c0 0-9.6-7.1 3-11.3 10.7-3.6 2.5-5.8 2.5-5.8 0 0 4-0.9 6.4 0.8 2.3 1.5 3.7 4.8 0.4 7.7-3.9 3.5-8.5 1.6-10.8 2.8-1.4 0.8-2.3 1.5-1.5 5.8z"/><path class="e" d="m185.1 308c0 0-6.5-4.9 2.2-7.8 7.2-2.4 1.6-3.9 1.6-3.9 0 0 2.8-0.6 4.5 0.5 1.5 1 2.4 3.3 0.2 5.3-2.7 2.4-5.8 1.1-7.4 1.9-0.9 0.5-1.6 1-1.1 4z"/><path class="v" d="m780.7 64.6c-23.8 0-43.2 19.3-43.2 43.1 0 23.9 19.4 43.2 43.2 43.2 23.9 0 43.2-19.3 43.2-43.2 0-23.8-19.3-43.1-43.2-43.1z"/><path class="w" d="m780.7 75c-18.2 0-32.9 14.8-32.9 33 0 13 7.5 24.3 18.5 29.6 4.4 2.2 9.2 3.3 14.4 3.3 18.2 0 33-14.7 33-32.9 0-8.1-2.9-15.5-7.8-21.2-6-7.2-15.1-11.8-25.2-11.8z"/><path class="x" d="m780.7 75c-18.2 0-32.9 14.8-32.9 33 0 11.1 5.4 20.9 13.8 26.8-3.8-5.3-6-11.9-6-19 0-18.2 14.7-33 32.9-33 7.1 0 13.7 2.3 19.1 6.1q-0.8-1.1-1.7-2.1c-6-7.2-15.1-11.8-25.2-11.8z"/><path class="y" d="m780.7 78.5c-0.4 0-0.7 0.1-0.7 0.3v9.2c0 0.2 0.3 0.4 0.7 0.4 0.4 0 0.7-0.2 0.7-0.4v-9.2c0-0.2-0.3-0.3-0.7-0.3z"/><path class="y" d="m780.7 128.3c-0.4 0-0.7 0.1-0.7 0.3v9.2c0 0.2 0.3 0.4 0.7 0.4 0.4 0 0.7-0.2 0.7-0.4v-9.2c0-0.2-0.3-0.3-0.7-0.3z"/><path class="y" d="m810.5 107.6h-9.2c-0.2 0-0.3 0.3-0.3 0.7 0 0.4 0.1 0.7 0.3 0.7h9.2c0.2 0 0.4-0.3 0.4-0.7 0-0.4-0.2-0.7-0.4-0.7z"/><path class="y" d="m760.3 107.6h-9.3c-0.2 0-0.3 0.3-0.3 0.7 0 0.4 0.1 0.7 0.3 0.7h9.3c0.1 0 0.3-0.3 0.3-0.7 0-0.4-0.2-0.7-0.3-0.7z"/><path class="z" d="m761.2 119.6l-1.1 1.8 2.1-0.3 19.2-12.2-1-1.5z"/><path class="y" d="m780.8 104.9c-1.8 0.2-3.1 1.7-3 3.4 0.1 1.8 1.6 3.1 3.4 3 1.7-0.1 3.1-1.6 3-3.4-0.2-1.7-1.7-3.1-3.4-3z"/><path class="y" d="m769.2 96.1l0.2 2.9 8.6 8.7 2.5-2.5-8.6-8.7z"/><path class="y" d="m782.2 107.2l-0.7 2.6 22 5.9 2.2-0.9-1.5-1.8z"/><path class="o" d="m791.9 248.2h-121.2c-1.3 0-2.4 1.3-2.4 2.8v87.4c0 1.6 1.1 2.8 2.4 2.8h121.2c1.3 0 2.4-1.2 2.4-2.8v-87.4c0-1.5-1.1-2.8-2.4-2.8z"/><path class="A" d="m679 333.6h98.2v-77.7h-98.2z"/><path class="B" d="m673.3 289.4c-0.5 0-0.9 0.4-0.9 0.8 0 0.5 0.4 0.9 0.9 0.9 0.6 0 1-0.4 1-0.9 0-0.4-0.4-0.8-1-0.8z"/><path class="B" d="m673.3 293.2c-0.5 0-0.9 0.5-0.9 1.1v8.7c0 0.7 0.4 1.2 0.9 1.2 0.6 0 1-0.5 1-1.2v-8.7c0-0.6-0.4-1.1-1-1.1z"/><path class="C" d="m769.1 333.6h-79.5v-66.6h79.5z"/><path class="g" d="m765.2 328.8h-71.4v-49.4h71.4z"/><path class="g" d="m765.2 276.6h-71.4v-5.9h71.4z"/><path class="h" d="m703.7 283h-4.5v-1.5h4.5z"/><path class="h" d="m703.7 297.7h-4.5v-1.4h4.5z"/><path class="i" d="m706.7 285.3h-4.6v-1.5h4.6z"/><path class="i" d="m711.9 285.3h-4.6v-1.5h4.6z"/><path class="j" d="m717.1 285.3h-4.6v-1.5h4.6z"/><path class="j" d="m722.3 285.3h-4.5v-1.5h4.5z"/><path class="j" d="m731.4 285.3h-7.9v-1.5h7.9z"/><path class="i" d="m708.9 287.8h-4.5v-1.5h4.5z"/><path class="i" d="m714.1 287.8h-4.5v-1.5h4.5z"/><path class="j" d="m719.3 287.8h-4.5v-1.5h4.5z"/><path class="j" d="m724.5 287.8h-4.5v-1.5h4.5z"/><path class="i" d="m708.9 292.8h-4.5v-1.5h4.5z"/><path class="i" d="m714.1 292.8h-4.5v-1.5h4.5z"/><path class="j" d="m719.3 292.8h-4.5v-1.5h4.5z"/><path class="j" d="m724.5 292.8h-4.5v-1.5h4.5z"/><path class="j" d="m733.7 292.8h-8v-1.5h8z"/><path class="i" d="m706.7 295.3h-4.6v-1.4h4.6z"/><path class="i" d="m711.9 295.3h-4.6v-1.4h4.6z"/><path class="j" d="m717.1 295.3h-4.6v-1.4h4.6z"/><path class="j" d="m722.3 295.3h-4.5v-1.4h4.5z"/><path class="i" d="m711.2 290.2h-4.5v-1.4h4.5z"/><path class="i" d="m716.4 290.2h-4.5v-1.4h4.5z"/><path class="j" d="m721.6 290.2h-4.5v-1.4h4.5z"/><path class="j" d="m726.8 290.2h-4.5v-1.4h4.5z"/><path class="j" d="m735.9 290.2h-7.9v-1.4h7.9z"/><path class="h" d="m703.7 301.1h-4.5v-1.4h4.5z"/><path class="h" d="m703.7 315.9h-4.5v-1.5h4.5z"/><path class="i" d="m706.7 303.5h-4.6v-1.5h4.6z"/><path class="i" d="m711.9 303.5h-4.6v-1.5h4.6z"/><path class="j" d="m717.1 303.5h-4.6v-1.5h4.6z"/><path class="j" d="m722.3 303.5h-4.5v-1.5h4.5z"/><path class="j" d="m731.4 303.5h-7.9v-1.5h7.9z"/><path class="i" d="m708.9 305.9h-4.5v-1.4h4.5z"/><path class="i" d="m714.1 305.9h-4.5v-1.4h4.5z"/><path class="j" d="m719.3 305.9h-4.5v-1.4h4.5z"/><path class="j" d="m724.5 305.9h-4.5v-1.4h4.5z"/><path class="i" d="m708.9 311h-4.5v-1.5h4.5z"/><path class="i" d="m714.1 311h-4.5v-1.5h4.5z"/><path class="j" d="m719.3 311h-4.5v-1.5h4.5z"/><path class="i" d="m706.7 313.5h-4.6v-1.5h4.6z"/><path class="i" d="m711.9 313.5h-4.6v-1.5h4.6z"/><path class="j" d="m717.1 313.5h-4.6v-1.5h4.6z"/><path class="j" d="m722.3 313.5h-4.5v-1.5h4.5z"/><path class="i" d="m711.2 308.4h-4.5v-1.5h4.5z"/><path class="i" d="m716.4 308.4h-4.5v-1.5h4.5z"/><path class="j" d="m721.6 308.4h-4.5v-1.5h4.5z"/><path class="j" d="m726.8 308.4h-4.5v-1.5h4.5z"/><path class="j" d="m735.9 308.4h-7.9v-1.5h7.9z"/><path class="h" d="m703.7 319.3h-4.5v-1.5h4.5z"/><path class="i" d="m706.7 321.7h-4.6v-1.5h4.6z"/><path class="i" d="m711.9 321.7h-4.6v-1.5h4.6z"/><path class="j" d="m717.1 321.7h-4.6v-1.5h4.6z"/><path class="j" d="m722.3 321.7h-4.5v-1.5h4.5z"/><path class="j" d="m731.4 321.7h-7.9v-1.5h7.9z"/><path class="i" d="m708.9 324.1h-4.5v-1.5h4.5z"/><path class="i" d="m714.1 324.1h-4.5v-1.5h4.5z"/><path class="j" d="m719.3 324.1h-4.5v-1.5h4.5z"/><path class="i" d="m711.2 326.6h-4.5v-1.5h4.5z"/><path class="i" d="m716.4 326.6h-4.5v-1.5h4.5z"/><path class="j" d="m721.6 326.6h-4.5v-1.5h4.5z"/><path class="j" d="m726.8 326.6h-4.5v-1.5h4.5z"/><path class="j" d="m735.9 326.6h-7.9v-1.5h7.9z"/><path class="j" d="m744.9 308.4h-8v-1.5h8z"/><path class="j" d="m753.8 308.4h-8v-1.5h8z"/><path class="t" d="m763.3 275.3h-3.4v-3.4h3.4z"/><path class="t" d="m758 275.3h-3.4v-3.4h3.4z"/><path class="t" d="m752.8 275.3h-3.4v-3.4h3.4z"/><path class="t" d="m699.2 275.3h-3.4v-3.4h3.4z"/><path class="q" d="m550.3 400h117.4l11.4-66c1-5.8-5-11.5-13.8-13-14.3-2.4-36-3.2-56.3-3.2-20.3 0-42 0.8-56.3 3.2-8.8 1.5-14.8 7.2-13.8 13z"/><path class="e" d="m493.9 341.2h-26.2v-4.2h26.2z"/><path fill-rule="evenodd" class="e" d="m515 319.8c0 5.4-4.4 12.7-9.7 12.7-5.4 0-9.7-4.3-9.7-9.7 0-5.4 4.3-9.7 9.7-9.7 5.3 0 9.7 1.4 9.7 6.7zm-5.1 0c0-3.7-3-3.7-6.7-3.7-3.7 0-6.7 3-6.7 6.7 0 3.7 3 6.7 6.7 6.7 3.7 0 6.7-6 6.7-9.7z"/><path class="e" d="m458.4 309.9q-0.3 1.7-0.3 3.6c0 13 10.2 23.5 22.7 23.5 12.6 0 22.7-10.5 22.7-23.5q0-1.9-0.3-3.6z"/><path class="e" d="m472.8 302.5c0 0-9.6-7.1 3-11.3 10.7-3.6 2.5-5.8 2.5-5.8 0 0 4-0.9 6.5 0.8 2.2 1.5 3.6 4.8 0.4 7.7-4 3.5-8.6 1.6-10.8 2.8-1.5 0.8-2.4 1.5-1.6 5.8z"/><path class="e" d="m484.2 308c0 0-6.6-4.9 2.1-7.8 7.2-2.4 1.6-3.9 1.6-3.9 0 0 2.8-0.6 4.5 0.5 1.5 1 2.4 3.3 0.2 5.3-2.7 2.4-5.8 1.1-7.4 1.9-0.9 0.5-1.6 1-1 4z"/></svg>